HIERARCHY
ROOT Root
{
  OFFSET 0.0 0.0 0.0
  CHANNELS 6 Xposition Yposition Zposition Zrotation Yrotation Xrotation
  JOINT Hips
  {
    OFFSET 0.0 100.0 0.0
    CHANNELS 6 Xposition Yposition Zposition Zrotation Yrotation Xrotation
    JOINT Spine1
    {
      OFFSET 5.003913 -0.037094 -0.013727
      CHANNELS 3 Zrotation Yrotation Xrotation
      JOINT Spine2
      {
        OFFSET 7.125363 -1e-06 0.0
        CHANNELS 3 Zrotation Yrotation Xrotation
        JOINT Chest
        {
          OFFSET 7.594027 1e-06 0.0
          CHANNELS 3 Zrotation Yrotation Xrotation
          JOINT Neck1
          {
            OFFSET 26.313086 -0.460272 -0.181672
            CHANNELS 3 Zrotation Yrotation Xrotation
            JOINT Neck2
            {
              OFFSET 8.045911 0.0 0.0
              CHANNELS 3 Zrotation Yrotation Xrotation
              JOINT Head
              {
                OFFSET 6.432774 0.0 0.0
                CHANNELS 3 Zrotation Yrotation Xrotation
                JOINT HeadEnd
                {
                  OFFSET 16.169773 0.06451 0.00362
                  CHANNELS 3 Zrotation Yrotation Xrotation
                }
                JOINT Jaw
                {
                  OFFSET 0.108741 3.12938 0.002639
                  CHANNELS 3 Zrotation Yrotation Xrotation
                }
                JOINT LeftEye
                {
                  OFFSET 4.45173 8.166359 3.206392
                  CHANNELS 3 Zrotation Yrotation Xrotation
                }
                JOINT RightEye
                {
                  OFFSET 4.436895 8.135758 -3.222429
                  CHANNELS 3 Zrotation Yrotation Xrotation
                }
              }
            }
          }
          JOINT LeftShoulder
          {
            OFFSET 23.218927 5.195579 1.621656
            CHANNELS 3 Zrotation Yrotation Xrotation
            JOINT LeftArm
            {
              OFFSET 15.902118 2e-06 -2e-06
              CHANNELS 3 Zrotation Yrotation Xrotation
              JOINT LeftForeArm
              {
                OFFSET 28.739307 0.0 -1e-06
                CHANNELS 3 Zrotation Yrotation Xrotation
                JOINT LeftHand
                {
                  OFFSET 27.093981 -4e-06 0.0
                  CHANNELS 3 Zrotation Yrotation Xrotation
                  JOINT LeftHandThumb1
                  {
                    OFFSET 2.276781 3.380274 0.83384
                    CHANNELS 3 Zrotation Yrotation Xrotation
                    JOINT LeftHandThumb2
                    {
                      OFFSET 4.705309 -1e-06 -1e-06
                      CHANNELS 3 Zrotation Yrotation Xrotation
                      JOINT LeftHandThumb3
                      {
                        OFFSET 2.798515 0.0 3e-06
                        CHANNELS 3 Zrotation Yrotation Xrotation
                        JOINT LeftHandThumbEnd
                        {
                          OFFSET 3.180793 4e-06 -4e-06
                          CHANNELS 3 Zrotation Yrotation Xrotation
                        }
                      }
                    }
                  }
                  JOINT LeftHandIndex1
                  {
                    OFFSET 3.247786 2.352677 0.137192
                    CHANNELS 3 Zrotation Yrotation Xrotation
                    JOINT LeftHandIndex2
                    {
                      OFFSET 6.367095 1e-06 0.0
                      CHANNELS 3 Zrotation Yrotation Xrotation
                      JOINT LeftHandIndex3
                      {
                        OFFSET 3.662364 0.0 0.0
                        CHANNELS 3 Zrotation Yrotation Xrotation
                        JOINT LeftHandIndex4
                        {
                          OFFSET 2.329242 4e-06 -4e-06
                          CHANNELS 3 Zrotation Yrotation Xrotation
                          JOINT LeftHandIndexEnd
                          {
                            OFFSET 2.767823 1e-06 0.0
                            CHANNELS 3 Zrotation Yrotation Xrotation
                          }
                        }
                      }
                    }
                  }
                  JOINT LeftHandMiddle1
                  {
                    OFFSET 3.163612 0.945023 -0.406112
                    CHANNELS 3 Zrotation Yrotation Xrotation
                    JOINT LeftHandMiddle2
                    {
                      OFFSET 6.276789 3e-06 0.0
                      CHANNELS 3 Zrotation Yrotation Xrotation
                      JOINT LeftHandMiddle3
                      {
                        OFFSET 4.35652 -1e-06 4e-06
                        CHANNELS 3 Zrotation Yrotation Xrotation
                        JOINT LeftHandMiddle4
                        {
                          OFFSET 2.996877 0.0 8e-06
                          CHANNELS 3 Zrotation Yrotation Xrotation
                          JOINT LeftHandMiddleEnd
                          {
                            OFFSET 2.323256 3e-06 -4e-06
                            CHANNELS 3 Zrotation Yrotation Xrotation
                          }
                        }
                      }
                    }
                  }
                  JOINT LeftHandRing1
                  {
                    OFFSET 2.882606 -0.309162 0.107445
                    CHANNELS 3 Zrotation Yrotation Xrotation
                    JOINT LeftHandRing2
                    {
                      OFFSET 6.033198 0.0 4e-06
                      CHANNELS 3 Zrotation Yrotation Xrotation
                      JOINT LeftHandRing3
                      {
                        OFFSET 4.350578 3e-06 0.0
                        CHANNELS 3 Zrotation Yrotation Xrotation
                        JOINT LeftHandRing4
                        {
                          OFFSET 2.651321 2e-06 -7e-06
                          CHANNELS 3 Zrotation Yrotation Xrotation
                          JOINT LeftHandRingEnd
                          {
                            OFFSET 1.937663 1e-06 -4e-06
                            CHANNELS 3 Zrotation Yrotation Xrotation
                          }
                        }
                      }
                    }
                  }
                  JOINT LeftHandPinky1
                  {
                    OFFSET 2.865315 -1.525436 0.575687
                    CHANNELS 3 Zrotation Yrotation Xrotation
                    JOINT LeftHandPinky2
                    {
                      OFFSET 5.54936 1e-06 -8e-06
                      CHANNELS 3 Zrotation Yrotation Xrotation
                      JOINT LeftHandPinky3
                      {
                        OFFSET 3.070974 0.0 -4e-06
                        CHANNELS 3 Zrotation Yrotation Xrotation
                        JOINT LeftHandPinky4
                        {
                          OFFSET 1.549672 1e-06 0.0
                          CHANNELS 3 Zrotation Yrotation Xrotation
                          JOINT LeftHandPinkyEnd
                          {
                            OFFSET 1.952123 0.0 0.0
                            CHANNELS 3 Zrotation Yrotation Xrotation
                          }
                        }
                      }
                    }
                  }
                }
              }
            }
          }
          JOINT RightShoulder
          {
            OFFSET 23.161716 5.296122 -1.380114
            CHANNELS 3 Zrotation Yrotation Xrotation
            JOINT RightArm
            {
              OFFSET -16.027195 -2e-06 1.1e-05
              CHANNELS 3 Zrotation Yrotation Xrotation
              JOINT RightForeArm
              {
                OFFSET -28.736639 4e-06 2e-06
                CHANNELS 3 Zrotation Yrotation Xrotation
                JOINT RightHand
                {
                  OFFSET -27.133619 6e-06 0.0
                  CHANNELS 3 Zrotation Yrotation Xrotation
                  JOINT RightHandThumb1
                  {
                    OFFSET -2.274328 -3.351035 -0.83067
                    CHANNELS 3 Zrotation Yrotation Xrotation
                    JOINT RightHandThumb2
                    {
                      OFFSET -4.703594 -3e-06 2e-06
                      CHANNELS 3 Zrotation Yrotation Xrotation
                      JOINT RightHandThumb3
                      {
                        OFFSET -2.794935 -4e-06 -3e-06
                        CHANNELS 3 Zrotation Yrotation Xrotation
                        JOINT RightHandThumbEnd
                        {
                          OFFSET -3.183852 4e-06 1e-06
                          CHANNELS 3 Zrotation Yrotation Xrotation
                        }
                      }
                    }
                  }
                  JOINT RightHandIndex1
                  {
                    OFFSET -3.253496 -2.33755 -0.127667
                    CHANNELS 3 Zrotation Yrotation Xrotation
                    JOINT RightHandIndex2
                    {
                      OFFSET -6.344434 0.0 0.0
                      CHANNELS 3 Zrotation Yrotation Xrotation
                      JOINT RightHandIndex3
                      {
                        OFFSET -3.654871 0.0 -8e-06
                        CHANNELS 3 Zrotation Yrotation Xrotation
                        JOINT RightHandIndex4
                        {
                          OFFSET -2.327586 -1e-06 0.0
                          CHANNELS 3 Zrotation Yrotation Xrotation
                          JOINT RightHandIndexEnd
                          {
                            OFFSET -2.770001 3e-06 8e-06
                            CHANNELS 3 Zrotation Yrotation Xrotation
                          }
                        }
                      }
                    }
                  }
                  JOINT RightHandMiddle1
                  {
                    OFFSET -3.168223 -0.944764 0.411762
                    CHANNELS 3 Zrotation Yrotation Xrotation
                    JOINT RightHandMiddle2
                    {
                      OFFSET -6.266691 -1e-06 -4e-06
                      CHANNELS 3 Zrotation Yrotation Xrotation
                      JOINT RightHandMiddle3
                      {
                        OFFSET -4.348901 0.0 0.0
                        CHANNELS 3 Zrotation Yrotation Xrotation
                        JOINT RightHandMiddle4
                        {
                          OFFSET -3.00024 2e-06 -4e-06
                          CHANNELS 3 Zrotation Yrotation Xrotation
                          JOINT RightHandMiddleEnd
                          {
                            OFFSET -2.321477 -4e-06 -4e-06
                            CHANNELS 3 Zrotation Yrotation Xrotation
                          }
                        }
                      }
                    }
                  }
                  JOINT RightHandRing1
                  {
                    OFFSET -2.885654 0.293261 -0.119232
                    CHANNELS 3 Zrotation Yrotation Xrotation
                    JOINT RightHandRing2
                    {
                      OFFSET -6.032835 -1e-06 -4e-06
                      CHANNELS 3 Zrotation Yrotation Xrotation
                      JOINT RightHandRing3
                      {
                        OFFSET -4.33881 0.0 -4e-06
                        CHANNELS 3 Zrotation Yrotation Xrotation
                        JOINT RightHandRing4
                        {
                          OFFSET -2.654903 -4e-06 -4e-06
                          CHANNELS 3 Zrotation Yrotation Xrotation
                          JOINT RightHandRingEnd
                          {
                            OFFSET -1.935122 0.0 4e-06
                            CHANNELS 3 Zrotation Yrotation Xrotation
                          }
                        }
                      }
                    }
                  }
                  JOINT RightHandPinky1
                  {
                    OFFSET -2.866241 1.503904 -0.60527
                    CHANNELS 3 Zrotation Yrotation Xrotation
                    JOINT RightHandPinky2
                    {
                      OFFSET -5.553177 -2e-06 0.0
                      CHANNELS 3 Zrotation Yrotation Xrotation
                      JOINT RightHandPinky3
                      {
                        OFFSET -3.062664 -1e-06 -4e-06
                        CHANNELS 3 Zrotation Yrotation Xrotation
                        JOINT RightHandPinky4
                        {
                          OFFSET -1.546529 2e-06 4e-06
                          CHANNELS 3 Zrotation Yrotation Xrotation
                          JOINT RightHandPinkyEnd
                          {
                            OFFSET -1.952341 0.0 -4e-06
                            CHANNELS 3 Zrotation Yrotation Xrotation
                          }
                        }
                      }
                    }
                  }
                }
              }
            }
          }
        }
      }
    }
    JOINT LeftLeg
    {
      OFFSET -8.443107 2.567604 10.043214
      CHANNELS 3 Zrotation Yrotation Xrotation
      JOINT LeftShin
      {
        OFFSET 43.229198 1e-06 -1e-06
        CHANNELS 3 Zrotation Yrotation Xrotation
        JOINT LeftFoot
        {
          OFFSET 42.298611 1e-06 1e-06
          CHANNELS 3 Zrotation Yrotation Xrotation
          JOINT LeftToeBase
          {
            OFFSET 14.165858 1e-06 0.0
            CHANNELS 3 Zrotation Yrotation Xrotation
            JOINT LeftToeEnd
            {
              OFFSET 6.7141 -0.234461 0.0
              CHANNELS 3 Zrotation Yrotation Xrotation
            }
          }
        }
      }
    }
    JOINT RightLeg
    {
      OFFSET -8.303923 2.592729 -10.047278
      CHANNELS 3 Zrotation Yrotation Xrotation
      JOINT RightShin
      {
        OFFSET -43.369682 0.0 1e-06
        CHANNELS 3 Zrotation Yrotation Xrotation
        JOINT RightFoot
        {
          OFFSET -42.260784 4e-06 2e-06
          CHANNELS 3 Zrotation Yrotation Xrotation
          JOINT RightToeBase
          {
            OFFSET -14.222245 -2e-06 -1e-06
            CHANNELS 3 Zrotation Yrotation Xrotation
            JOINT RightToeEnd
            {
              OFFSET -6.660062 0.232574 -2e-06
              CHANNELS 3 Zrotation Yrotation Xrotation
            }
          }
        }
      }
    }
  }
}
MOTION
Frames: 4
Frame Time: 0.03333333333333333
0.0 0.0 0.0 0.0 -0.0 0.0 -1.5643 48.829796 -0.16472 90.689171 -51.392174 89.172707 12.258415 0.188992 -0.752967 -4.323967 -0.65596 -1.278113 25.981703 2.143107 -2.910949 23.0429 -1.628692 2.391584 -2.947885 -0.740164 0.766783 -32.799644 0.315586 0.493237 6e-06 0.0 -0.0 -0.123144 0.032544 -0.019501 0.018676 -0.014514 0.032721 -0.03672 0.081763 -0.06407 -36.485115 -75.803261 43.612656 82.53891 2.523207 -15.865903 8.772841 -1.234601 0.03188 -2.271909 67.955605 -1.438299 17.636629 -26.322727 52.411182 -19.46666 -14.395592 29.410385 -1e-06 -8.77482 -3e-06 16.76042 -17.477583 6.049258 -0.609777 -1.795654 -3.889327 -4.807089 -11.046811 -2.93785 4e-06 -20.976017 -1e-06 -5.019971 -25.033556 -4.031882 6e-06 1e-06 -1e-06 -10.634534 -5.686972 -3.565587 10.573272 -17.922947 -3.113899 3e-06 -13.821208 1e-06 -0.501778 -31.181498 -4.027015 -11.177503 -59.873192 7.879506 -13.982713 -7.150199 -2.875041 13.772727 -8.40149 -3.21824 0.347734 -34.21154 0.771654 -0.963028 -17.733366 2.62102 0.0 0.0 0.0 -17.346416 -20.095217 -4.201783 21.757557 -1.638378 3.86643 1e-06 -6.33882 1e-06 -1.697589 -22.591742 -6.194006 0.0 -4e-06 -3e-06 179.005539 -79.358154 8.265244 88.829231 2.230952 -18.750229 10.729866 -0.653925 0.051312 -34.067226 66.761917 -38.312855 22.182121 -20.375898 49.933319 -16.701817 -16.74353 28.476536 -3e-06 -12.690604 -0.0 16.467619 -17.793737 2.469654 -0.105919 -1.513854 -4.275879 -5.03904 -5.612872 -2.953558 4e-06 -11.020525 -2e-06 -6.1113 -15.895334 -3.840468 -1e-06 1e-06 -1e-06 -10.283371 -5.680289 -4.341838 11.028296 -11.302406 -2.372632 -1.38427 -14.238583 -6.320121 -0.625438 -26.924191 -3.8276 -4.005243 -48.704437 -4.405288 -13.708527 -7.363475 -3.720939 18.14115 -14.052739 -3.242674 4e-06 -18.787266 -1e-06 -0.429711 -8.456041 2.555502 -0.0 0.0 -1e-06 -15.923536 -20.094482 -5.473585 30.419218 -7.190826 1.735926 2e-06 -8.162929 1e-06 -1.861904 -22.861471 -6.167942 -0.0 -2e-06 -2e-06 116.67717 -7.824046 8.481746 124.673546 -0.570969 0.176944 -101.133301 13.35712 13.560607 -48.845242 1.990664 1.332874 -0.999996 -0.0 -1e-06 -51.740841 -4.01664 4.823603 115.561348 -0.264501 0.049894 -103.627449 10.225471 15.590736 -50.205597 1.320135 1.4582 -1.000005 -0.0 1e-06 
0.0 0.0 0.0 0.0 -0.0 0.0 -1.499722 48.814236 0.051417 90.427925 -51.434219 89.197655 12.237768 0.243443 -0.762708 -4.385443 -0.627406 -1.208308 25.975767 2.112237 -2.753543 22.934313 -1.689784 2.24885 -2.925314 -0.71367 0.723182 -32.670128 0.348435 0.461291 5e-06 0.0 0.0 -0.126512 0.021097 -0.021313 0.045442 -0.036153 0.032965 -0.013222 0.082197 -0.070744 -36.549404 -75.971375 43.965614 82.517586 2.672387 -15.99992 8.581239 -1.234762 0.025486 -1.078792 67.977341 -0.292474 17.636635 -26.322731 52.41119 -19.46666 -14.395596 29.410385 -1e-06 -8.774822 -3e-06 16.707829 -17.485538 6.067254 -0.609777 -1.795654 -3.889327 -4.80709 -11.046812 -2.93785 4e-06 -20.976021 0.0 -5.019971 -25.033558 -4.031881 6e-06 0.0 -1e-06 -10.634537 -5.686971 -3.565588 10.573277 -17.922951 -3.113899 3e-06 -13.82121 1e-06 -0.501777 -31.181505 -4.027016 -10.968902 -59.9072 7.743165 -13.982716 -7.150199 -2.875042 13.772731 -8.401493 -3.218241 0.347734 -34.211552 0.771656 -0.963028 -17.73337 2.621021 -0.0 -0.0 -0.0 -17.346422 -20.095217 -4.201783 21.757563 -1.638376 3.866429 1e-06 -6.338821 1e-06 -1.697589 -22.591745 -6.194006 0.0 -3e-06 -2e-06 178.967682 -79.297371 8.441546 88.954727 2.224424 -19.092562 10.557806 -0.622125 0.056195 -33.419655 66.760864 -38.17421 22.182114 -20.375891 49.933315 -16.701815 -16.743526 28.476534 -3e-06 -12.690601 -2e-06 16.422132 -17.775236 2.507727 -0.105918 -1.513858 -4.275882 -5.039039 -5.61287 -2.953556 4e-06 -11.020523 -2e-06 -6.1113 -15.89533 -3.840469 -0.0 -0.0 3e-06 -10.283367 -5.680288 -4.341838 11.028296 -11.302406 -2.372633 -1.38427 -14.238583 -6.320121 -0.625435 -26.924189 -3.827601 -3.996492 -48.7883 -4.307893 -13.708522 -7.363477 -3.720939 18.14115 -14.052739 -3.242675 6e-06 -18.78727 -2e-06 -0.429711 -8.456044 2.555503 -0.0 -1e-06 0.0 -15.923532 -20.094482 -5.473586 30.41921 -7.190826 1.735927 3e-06 -8.162928 -1e-06 -1.861901 -22.861471 -6.167942 -1e-06 -2e-06 -2e-06 116.924385 -8.056612 8.419098 124.427895 -0.580422 0.173516 -100.696571 13.37379 13.75157 -48.843418 1.972134 1.274418 -1.0 1e-06 -0.0 -51.546474 -3.802328 4.718517 115.206276 -0.340094 0.012852 -103.137711 10.33782 15.776697 -49.99308 1.309707 1.453381 -1.000004 -1e-06 -0.0 
0.0 0.0 0.0 0.0 -0.0 0.0 -1.442743 48.799873 0.367883 90.288086 -51.458988 89.179939 12.181965 0.258189 -0.744739 -4.433426 -0.592715 -1.138537 25.982658 2.111945 -2.635217 22.841619 -1.721163 2.128955 -2.913454 -0.763946 0.639098 -32.623966 0.305858 0.407053 6e-06 -0.0 -0.0 -0.122396 -0.001213 -0.017352 0.040084 -0.064056 0.031341 -0.017254 0.066485 -0.064654 -36.154465 -76.059502 43.807972 82.469887 2.737822 -15.822856 8.561957 -1.247162 0.021466 -1.024966 67.884186 -0.300435 17.636627 -26.322729 52.411179 -19.466663 -14.395594 29.410381 -2e-06 -8.774819 -2e-06 16.650812 -17.475542 6.077441 -0.609776 -1.795654 -3.889327 -4.807087 -11.046814 -2.93785 4e-06 -20.976019 -0.0 -5.01997 -25.03356 -4.031881 6e-06 1e-06 1e-06 -10.634533 -5.686969 -3.565587 10.573272 -17.922951 -3.113901 3e-06 -13.821209 1e-06 -0.501777 -31.181505 -4.027016 -10.844058 -59.912788 7.663577 -13.982712 -7.150201 -2.875042 13.772727 -8.401491 -3.21824 0.347733 -34.211555 0.771655 -0.963029 -17.73337 2.62102 -0.0 0.0 -0.0 -17.346416 -20.095217 -4.20178 21.757555 -1.638377 3.866427 1e-06 -6.338822 0.0 -1.697589 -22.591742 -6.194006 0.0 -4e-06 -2e-06 179.522919 -79.188408 7.997398 88.877136 2.163726 -19.499788 10.428488 -0.667678 0.0547 -32.89127 66.920113 -37.866085 22.182121 -20.375893 49.933315 -16.701811 -16.743528 28.476528 -1e-06 -12.690601 -2e-06 16.38567 -17.711946 2.529579 -0.105919 -1.513857 -4.275881 -5.039037 -5.612868 -2.953557 3e-06 -11.020523 -0.0 -6.1113 -15.895334 -3.840471 -3e-06 -1e-06 1e-06 -10.28337 -5.680288 -4.341838 11.028294 -11.302404 -2.372631 -1.384271 -14.238583 -6.320122 -0.625435 -26.924187 -3.8276 -3.979223 -48.786057 -4.215827 -13.708522 -7.363476 -3.72094 18.141148 -14.052736 -3.242673 3e-06 -18.78727 -1e-06 -0.429711 -8.45604 2.555502 0.0 -1e-06 1e-06 -15.923532 -20.094482 -5.473584 30.419201 -7.190823 1.735926 3e-06 -8.162926 -1e-06 -1.861903 -22.861469 -6.167941 -0.0 -2e-06 0.0 117.361542 -8.230849 8.257795 124.077721 -0.593097 0.174574 -100.521568 13.287468 13.920069 -48.877258 1.964809 1.2562 -0.999997 0.0 0.0 -51.192089 -3.644205 4.697532 114.738792 -0.383882 0.009582 -102.719849 10.388641 15.877757 -49.940357 1.29838 1.454121 -1.000004 0.0 1e-06 
0.0 0.0 0.0 0.0 -0.0 0.0 -1.399408 48.794109 0.616085 90.158424 -51.511169 89.189331 12.12044 0.265897 -0.720228 -4.477516 -0.574039 -1.087728 25.96126 2.182743 -2.543172 22.744661 -1.795647 2.029003 -2.901156 -0.832164 0.553091 -32.681736 0.245096 0.347711 7e-06 -0.0 -0.0 -0.11823 -0.023944 -0.011624 0.025193 -0.089853 0.03023 -0.029877 0.046907 -0.054363 -35.91291 -76.118332 43.73312 82.442978 2.716054 -15.675366 8.641058 -1.266492 0.016228 -1.136333 67.890991 -0.252127 17.636631 -26.322729 52.411179 -19.466663 -14.395596 29.410385 -1e-06 -8.774821 -3e-06 16.597412 -17.458052 6.084671 -0.609776 -1.795654 -3.889327 -4.807088 -11.046807 -2.93785 4e-06 -20.976015 -0.0 -5.019971 -25.033554 -4.031879 6e-06 0.0 -1e-06 -10.634533 -5.686971 -3.565587 10.573272 -17.922947 -3.113899 3e-06 -13.821208 1e-06 -0.501778 -31.181498 -4.027015 -10.834783 -59.92017 7.631091 -13.982714 -7.150196 -2.875041 13.77273 -8.401493 -3.218241 0.347734 -34.211544 0.771655 -0.963028 -17.73337 2.62102 -0.0 0.0 -0.0 -17.346422 -20.095217 -4.201779 21.757559 -1.638375 3.866428 1e-06 -6.338823 1e-06 -1.69759 -22.591747 -6.194005 0.0 -4e-06 -2e-06 -179.888687 -79.027 7.41163 88.741287 1.975811 -19.873884 10.396021 -0.70947 0.050843 -32.492924 67.058075 -37.641647 22.182114 -20.375891 49.9333 -16.701811 -16.743528 28.476526 -2e-06 -12.6906 -1e-06 16.368862 -17.658001 2.53399 -0.105917 -1.513857 -4.275881 -5.039037 -5.612869 -2.953555 4e-06 -11.02052 -2e-06 -6.111297 -15.895332 -3.840467 -2e-06 -0.0 0.0 -10.283365 -5.680287 -4.341838 11.028295 -11.302402 -2.372634 -1.384269 -14.238579 -6.320121 -0.625436 -26.924183 -3.827598 -3.954983 -48.782822 -4.147128 -13.708521 -7.363475 -3.720938 18.141148 -14.052739 -3.242673 5e-06 -18.78727 1e-06 -0.429711 -8.456043 2.555503 -0.0 -1e-06 0.0 -15.92353 -20.094479 -5.473583 30.419207 -7.190825 1.735923 3e-06 -8.162925 -1e-06 -1.861902 -22.861467 -6.167937 -0.0 -3e-06 -1e-06 117.658646 -8.340199 8.17222 123.802536 -0.597143 0.172128 -100.384781 13.21847 14.083971 -49.089169 1.96776 1.257234 -0.999998 -0.0 -0.0 -50.947765 -3.488389 4.712073 114.370895 -0.392223 0.000405 -102.411011 10.348835 15.928133 -49.992733 1.288925 1.457013 -1.000001 -1e-06 0.0 
